<svg width="73" height="78" viewBox="0 0 73 78" fill="none" xmlns="http://www.w3.org/2000/svg">
    <path d="M25.6513 68.5668C29.1588 69.8434 32.6868 70.3728 36.2351 70.1549C39.7835 69.9369 43.1046 69.1066 46.1983 67.664C49.2921 66.2213 52.0629 64.211 54.5107 61.6328C56.9585 59.0547 58.8207 56.0119 60.0973 52.5044L54.4853 50.4617C52.4937 55.9335 48.8985 59.8815 43.6997 62.3057C38.5009 64.73 33.1656 64.9463 27.6939 62.9547C22.2221 60.9632 18.2741 57.368 15.8499 52.1692C13.4257 46.9704 13.2093 41.6351 15.2009 36.1634C17.1924 30.6916 20.7876 26.7436 25.9864 24.3194C31.1852 21.8952 36.5205 21.6788 41.9922 23.6704L42.4131 23.8236L36.4808 26.5899L38.9283 32.0885L54.2377 24.9496L47.0988 9.64024L41.6895 12.2791L44.4558 18.2115L44.0349 18.0583C40.5273 16.7817 36.9994 16.2523 33.451 16.4703C29.9026 16.6882 26.5816 17.5185 23.4878 18.9611C20.394 20.4038 17.6233 22.4142 15.1755 24.9923C12.7277 27.5704 10.8655 30.6132 9.58883 34.1208C8.31219 37.6283 7.78284 41.1563 8.00077 44.7046C8.2187 48.253 9.04899 51.5741 10.4916 54.6678C11.9343 57.7616 13.9447 60.5324 16.5228 62.9802C19.1009 65.4279 22.1437 67.2902 25.6513 68.5668Z" fill="black"/>
    <path d="M36.3335 55.7505C35.2918 55.7505 34.3537 55.5434 33.5192 55.1291C32.6847 54.7148 32.0159 54.1466 31.5128 53.4245C31.0097 52.7025 30.7345 51.8798 30.6871 50.9565H32.8178C32.9007 51.7792 33.2736 52.4598 33.9364 52.9984C34.6052 53.5311 35.4042 53.7974 36.3335 53.7974C37.0792 53.7974 37.7421 53.6228 38.3221 53.2736C38.908 52.9244 39.3667 52.445 39.6982 51.8354C40.0355 51.2199 40.2042 50.5244 40.2042 49.7491C40.2042 48.956 40.0296 48.2488 39.6804 47.6273C39.3371 46.9999 38.8636 46.5057 38.2599 46.1447C37.6563 45.7837 36.9667 45.6002 36.1914 45.5943C35.6351 45.5884 35.0639 45.6742 34.478 45.8517C33.892 46.0234 33.4097 46.2453 33.0309 46.5176L30.9712 46.269L32.0721 37.3201H41.5181V39.2733H33.9187L33.2795 44.6355H33.386C33.7589 44.3395 34.2264 44.0939 34.7887 43.8986C35.351 43.7033 35.9369 43.6056 36.5465 43.6056C37.6592 43.6056 38.6506 43.872 39.5206 44.4047C40.3965 44.9314 41.0831 45.6535 41.5803 46.5708C42.0833 47.4882 42.3349 48.5358 42.3349 49.7136C42.3349 50.8736 42.0745 51.9094 41.5536 52.8208C41.0387 53.7264 40.3285 54.4425 39.4229 54.9693C38.5174 55.4901 37.4876 55.7505 36.3335 55.7505Z" fill="black"/>
</svg>