<svg width="72" height="78" viewBox="0 0 72 78" fill="none" xmlns="http://www.w3.org/2000/svg">
<path d="M46.7237 68.4633C43.2162 69.7399 39.6882 70.2693 36.1399 70.0513C32.5915 69.8334 29.2704 69.0031 26.1767 67.5605C23.0829 66.1178 20.3121 64.1074 17.8643 61.5293C15.4165 58.9512 13.5543 55.9084 12.2777 52.4008L17.8897 50.3582C19.8813 55.83 23.4765 59.778 28.6753 62.2022C33.8741 64.6264 39.2094 64.8428 44.6811 62.8512C50.1529 60.8597 54.1009 57.2645 56.5251 52.0657C58.9493 46.8669 59.1657 41.5316 57.1741 36.0599C55.1826 30.5881 51.5874 26.6401 46.3886 24.2159C41.1898 21.7916 35.8545 21.5753 30.3828 23.5669L29.9619 23.7201L35.8942 26.4864L33.4467 31.9849L18.1373 24.8461L25.2762 9.53672L30.6855 12.1756L27.9192 18.108L28.3401 17.9548C31.8477 16.6782 35.3756 16.1488 38.924 16.3667C42.4724 16.5847 45.7934 17.415 48.8872 18.8576C51.981 20.3003 54.7517 22.3106 57.1995 24.8888C59.6473 27.4669 61.5095 30.5097 62.7862 34.0173C64.0628 37.5248 64.5922 41.0527 64.3742 44.6011C64.1563 48.1495 63.326 51.4705 61.8834 54.5643C60.4407 57.6581 58.4303 60.4288 55.8522 62.8766C53.2741 65.3244 50.2313 67.1867 46.7237 68.4633Z" fill="black"/>
<path d="M35.9589 55.6431C34.9173 55.6431 33.9792 55.436 33.1447 55.0217C32.3101 54.6074 31.6414 54.0392 31.1383 53.3171C30.6352 52.5951 30.36 51.7724 30.3126 50.8491H32.4433C32.5262 51.6718 32.899 52.3524 33.5619 52.891C34.2307 53.4237 35.0297 53.69 35.9589 53.69C36.7047 53.69 37.3676 53.5154 37.9476 53.1662C38.5335 52.817 38.9922 52.3376 39.3236 51.728C39.661 51.1125 39.8297 50.417 39.8297 49.6417C39.8297 48.8486 39.6551 48.1413 39.3059 47.5199C38.9626 46.8925 38.4891 46.3983 37.8854 46.0373C37.2817 45.6763 36.5922 45.4928 35.8169 45.4869C35.2605 45.4809 34.6894 45.5668 34.1035 45.7443C33.5175 45.916 33.0352 46.1379 32.6564 46.4102L30.5967 46.1616L31.6976 37.2127H41.1436V39.1658H33.5442L32.905 44.5281H33.0115C33.3844 44.2321 33.8519 43.9865 34.4142 43.7912C34.9765 43.5959 35.5624 43.4982 36.172 43.4982C37.2847 43.4982 38.2761 43.7646 39.1461 44.2972C40.022 44.824 40.7086 45.546 41.2057 46.4634C41.7088 47.3808 41.9604 48.4284 41.9604 49.6062C41.9604 50.7662 41.6999 51.802 41.1791 52.7134C40.6642 53.619 39.954 54.3351 39.0484 54.8619C38.1429 55.3827 37.1131 55.6431 35.9589 55.6431Z" fill="black"/>
</svg>
